<svg width="176" height="42" viewBox="0 0 176 42" fill="none" xmlns="http://www.w3.org/2000/svg">
<path opacity="0.5" d="M40.0652 2.25671L30.2601 36.9917C30.2102 37.1494 30.0108 37.1967 29.8945 37.0863L23.3301 30.8583L28.2492 13.4514C28.2991 13.2937 28.1495 13.1518 27.9833 13.1991L9.63617 17.8662L3.10498 11.6697C2.98865 11.5593 3.03851 11.3701 3.20469 11.3228L39.7993 2.00444C39.9655 1.97291 40.115 2.11481 40.0652 2.25671Z" fill="#00B37E"/>
<path opacity="0.5" d="M23.3297 30.858L20.8037 39.8452C20.7538 40.0029 20.5544 40.0502 20.4381 39.9398L0.0634003 20.6251C-0.0529313 20.5147 -0.00307518 20.3255 0.163113 20.2782L9.63583 17.8658L23.3297 30.858Z" fill="#00B37E"/>
<path d="M28.2484 13.4511L23.3292 30.858L9.63533 17.8659L27.9825 13.1988C28.1487 13.1515 28.2982 13.2934 28.2484 13.4511Z" fill="#00B37E"/>
<path d="M72.1065 19.993V27.2013C71.8234 27.5428 71.3861 27.9134 70.7948 28.3132C70.2035 28.7046 69.4414 29.0419 68.5086 29.3251C67.5758 29.6083 66.4473 29.7499 65.1231 29.7499C63.9487 29.7499 62.8785 29.5583 61.9124 29.1752C60.9463 28.7837 60.1134 28.2132 59.4138 27.4637C58.7226 26.7141 58.1895 25.798 57.8147 24.7152C57.44 23.6242 57.2526 22.3791 57.2526 20.9799V19.843C57.2526 18.4438 57.4316 17.1987 57.7898 16.1077C58.1562 15.0166 58.6768 14.0963 59.3514 13.3468C60.026 12.5972 60.8297 12.0267 61.7625 11.6352C62.6953 11.2438 63.7322 11.0481 64.8732 11.0481C66.4556 11.0481 67.7549 11.3063 68.771 11.8226C69.787 12.3307 70.5616 13.0386 71.0946 13.9464C71.636 14.8459 71.9691 15.8786 72.0941 17.0446H68.4586C68.367 16.4283 68.1921 15.8911 67.9339 15.4331C67.6758 14.975 67.3051 14.6169 66.8221 14.3587C66.3474 14.1005 65.731 13.9714 64.9731 13.9714C64.3485 13.9714 63.7905 14.1005 63.2991 14.3587C62.816 14.6085 62.4079 14.9792 62.0748 15.4705C61.7417 15.9619 61.4876 16.5699 61.3127 17.2945C61.1378 18.0191 61.0504 18.8603 61.0504 19.8181V20.9799C61.0504 21.9293 61.142 22.7705 61.3252 23.5034C61.5085 24.228 61.7791 24.8402 62.1373 25.3399C62.5037 25.8313 62.9535 26.2019 63.4865 26.4517C64.0195 26.7016 64.64 26.8265 65.3479 26.8265C65.9393 26.8265 66.4306 26.7766 66.8221 26.6766C67.2219 26.5767 67.5425 26.4559 67.784 26.3143C68.0339 26.1644 68.2254 26.0228 68.3587 25.8896V22.6664H64.9357V19.993H72.1065ZM82.2133 23.0162H77.5784V20.0929H82.2133C82.9295 20.0929 83.5125 19.9763 83.9622 19.7431C84.412 19.5016 84.741 19.1684 84.9492 18.7437C85.1574 18.3189 85.2615 17.84 85.2615 17.307C85.2615 16.7656 85.1574 16.2618 84.9492 15.7954C84.741 15.329 84.412 14.9542 83.9622 14.671C83.5125 14.3878 82.9295 14.2462 82.2133 14.2462H78.8777V29.5H75.1298V11.3104H82.2133C83.6374 11.3104 84.8576 11.5686 85.8737 12.085C86.8981 12.593 87.6809 13.2968 88.2223 14.1963C88.7637 15.0958 89.0343 16.1243 89.0343 17.282C89.0343 18.4563 88.7637 19.4724 88.2223 20.3303C87.6809 21.1881 86.8981 21.8502 85.8737 22.3166C84.8576 22.783 83.6374 23.0162 82.2133 23.0162ZM99.7032 11.3104H102.876L107.549 24.6653L112.221 11.3104H115.394L108.823 29.5H106.274L99.7032 11.3104ZM97.9917 11.3104H101.152L101.727 24.328V29.5H97.9917V11.3104ZM113.945 11.3104H117.118V29.5H113.37V24.328L113.945 11.3104ZM119.604 22.8788V22.6164C119.604 21.6253 119.746 20.7134 120.029 19.8805C120.312 19.0393 120.724 18.3106 121.266 17.6943C121.807 17.078 122.473 16.5991 123.265 16.2576C124.056 15.9078 124.964 15.7329 125.988 15.7329C127.013 15.7329 127.925 15.9078 128.724 16.2576C129.524 16.5991 130.194 17.078 130.735 17.6943C131.285 18.3106 131.702 19.0393 131.985 19.8805C132.268 20.7134 132.409 21.6253 132.409 22.6164V22.8788C132.409 23.8616 132.268 24.7735 131.985 25.6147C131.702 26.4476 131.285 27.1763 130.735 27.801C130.194 28.4173 129.528 28.8962 128.737 29.2377C127.945 29.5791 127.038 29.7499 126.013 29.7499C124.989 29.7499 124.077 29.5791 123.277 29.2377C122.486 28.8962 121.816 28.4173 121.266 27.801C120.724 27.1763 120.312 26.4476 120.029 25.6147C119.746 24.7735 119.604 23.8616 119.604 22.8788ZM123.202 22.6164V22.8788C123.202 23.4451 123.252 23.974 123.352 24.4654C123.452 24.9568 123.61 25.3899 123.827 25.7646C124.052 26.1311 124.343 26.4184 124.701 26.6266C125.06 26.8349 125.497 26.939 126.013 26.939C126.513 26.939 126.942 26.8349 127.3 26.6266C127.658 26.4184 127.945 26.1311 128.162 25.7646C128.378 25.3899 128.537 24.9568 128.637 24.4654C128.745 23.974 128.799 23.4451 128.799 22.8788V22.6164C128.799 22.0668 128.745 21.5504 128.637 21.0673C128.537 20.576 128.374 20.1429 128.149 19.7681C127.933 19.385 127.646 19.0851 127.287 18.8686C126.929 18.6521 126.496 18.5438 125.988 18.5438C125.48 18.5438 125.047 18.6521 124.689 18.8686C124.339 19.0851 124.052 19.385 123.827 19.7681C123.61 20.1429 123.452 20.576 123.352 21.0673C123.252 21.5504 123.202 22.0668 123.202 22.6164ZM138.144 18.8686V29.5H134.546V15.9828H137.919L138.144 18.8686ZM137.619 22.2666H136.645C136.645 21.2672 136.774 20.3677 137.032 19.5682C137.29 18.7603 137.652 18.0732 138.119 17.5069C138.585 16.9322 139.139 16.495 139.78 16.1951C140.43 15.887 141.154 15.7329 141.954 15.7329C142.587 15.7329 143.166 15.8245 143.69 16.0077C144.215 16.191 144.665 16.4825 145.04 16.8822C145.423 17.282 145.714 17.8109 145.914 18.4688C146.122 19.1268 146.227 19.9305 146.227 20.8799V29.5H142.604V20.8675C142.604 20.2678 142.52 19.8014 142.354 19.4683C142.187 19.1351 141.941 18.9019 141.617 18.7687C141.3 18.6271 140.909 18.5563 140.442 18.5563C139.959 18.5563 139.539 18.6521 139.181 18.8436C138.831 19.0352 138.539 19.3017 138.306 19.6432C138.081 19.9763 137.91 20.3677 137.794 20.8175C137.677 21.2672 137.619 21.7503 137.619 22.2666ZM155.184 29.7499C154.135 29.7499 153.193 29.5833 152.361 29.2501C151.528 28.9087 150.82 28.4381 150.237 27.8385C149.662 27.2388 149.221 26.5434 148.912 25.7521C148.604 24.9526 148.45 24.1031 148.45 23.2036V22.7039C148.45 21.6795 148.596 20.7425 148.888 19.893C149.179 19.0435 149.595 18.3064 150.137 17.6818C150.686 17.0571 151.353 16.5782 152.136 16.2451C152.919 15.9036 153.801 15.7329 154.784 15.7329C155.742 15.7329 156.591 15.8911 157.333 16.2076C158.074 16.5241 158.694 16.9739 159.194 17.5569C159.702 18.1398 160.085 18.8394 160.343 19.6556C160.602 20.4635 160.731 21.363 160.731 22.3541V23.8532H149.987V21.4546H157.195V21.1798C157.195 20.6801 157.104 20.2345 156.92 19.843C156.746 19.4433 156.479 19.1268 156.121 18.8936C155.763 18.6604 155.305 18.5438 154.747 18.5438C154.272 18.5438 153.864 18.6479 153.522 18.8561C153.181 19.0643 152.902 19.3558 152.685 19.7306C152.477 20.1054 152.319 20.5468 152.211 21.0548C152.111 21.5546 152.061 22.1042 152.061 22.7039V23.2036C152.061 23.745 152.136 24.2447 152.286 24.7028C152.444 25.1608 152.665 25.5564 152.948 25.8896C153.239 26.2227 153.589 26.4809 153.997 26.6641C154.414 26.8474 154.884 26.939 155.409 26.939C156.058 26.939 156.662 26.814 157.22 26.5642C157.787 26.306 158.274 25.9187 158.682 25.4024L160.431 27.3013C160.148 27.7094 159.76 28.1008 159.269 28.4756C158.786 28.8504 158.203 29.1585 157.52 29.4001C156.837 29.6333 156.058 29.7499 155.184 29.7499ZM166.615 27.9759L170.2 15.9828H174.061L168.626 31.5363C168.51 31.8778 168.351 32.2443 168.151 32.6357C167.96 33.0271 167.698 33.3978 167.364 33.7476C167.04 34.1057 166.627 34.3972 166.128 34.6221C165.636 34.8469 165.032 34.9594 164.316 34.9594C163.975 34.9594 163.696 34.9385 163.479 34.8969C163.263 34.8553 163.004 34.797 162.705 34.722V32.086C162.796 32.086 162.892 32.086 162.992 32.086C163.092 32.0943 163.188 32.0985 163.279 32.0985C163.754 32.0985 164.141 32.0444 164.441 31.9361C164.741 31.8278 164.982 31.6613 165.166 31.4364C165.349 31.2198 165.495 30.9367 165.603 30.5869L166.615 27.9759ZM165.116 15.9828L168.052 25.7771L168.564 29.5874L166.115 29.8498L161.255 15.9828H165.116Z" fill="#E1E1E6"/>
</svg>
